HIERARCHY
ROOT Hips
{
	OFFSET -3.958830 18.904000 13.208200
	CHANNELS 6 Xposition Yposition Zposition Zrotation Yrotation Xrotation 
	JOINT LHipJoint
	{
		OFFSET 0.000000 0.000000 0.000000
		CHANNELS 3 Zrotation Yrotation Xrotation
		JOINT LeftUpLeg
		{
			OFFSET 1.800000 -1.400000 0.085000
			CHANNELS 3 Zrotation Yrotation Xrotation
			JOINT LeftLeg
			{
				OFFSET 2.215000 -6.000000 0.000000
				CHANNELS 3 Zrotation Yrotation Xrotation
				JOINT LeftFoot
				{
					OFFSET 2.500000 -6.900000 0.000000
					CHANNELS 3 Zrotation Yrotation Xrotation
					JOINT LeftToeBase
					{
						OFFSET 0.200000 -0.500000 1.950000
						CHANNELS 3 Zrotation Yrotation Xrotation
						End Site
						{
							OFFSET 0.000000 0.000000 0.000000
						}
					}
				}
			}
		}
	}
	JOINT RHipJoint
	{
		OFFSET 0.000000 0.000000 0.000000
		CHANNELS 3 Zrotation Yrotation Xrotation
		JOINT RightUpLeg
		{
			OFFSET -1.800000 -1.400000 0.085000
			CHANNELS 3 Zrotation Yrotation Xrotation
			JOINT RightLeg
			{
				OFFSET -2.215000 -6.000000 0.000000
				CHANNELS 3 Zrotation Yrotation Xrotation
				JOINT RightFoot
				{
					OFFSET -2.500000 -6.900000 0.000000
					CHANNELS 3 Zrotation Yrotation Xrotation
					JOINT RightToeBase
					{
						OFFSET -0.200000 -0.500000 1.950000
						CHANNELS 3 Zrotation Yrotation Xrotation
						End Site
						{
							OFFSET 0.000000 0.000000 0.000000
						}
					}
				}
			}
		}
	}
	JOINT LowerBack
	{
		OFFSET 0.000000 0.000000 0.000000
		CHANNELS 3 Zrotation Yrotation Xrotation
		JOINT Spine
		{
			OFFSET -0.087000 1.940000 -0.288900
			CHANNELS 3 Zrotation Yrotation Xrotation
			JOINT Spine1
			{
				OFFSET 0.000000 1.950000 0.060000
				CHANNELS 3 Zrotation Yrotation Xrotation
				JOINT Neck
				{
					OFFSET 0.000000 0.000000 0.000000
					CHANNELS 3 Zrotation Yrotation Xrotation
					JOINT Neck1
					{
						OFFSET 0.000000 1.600000 0.340000
						CHANNELS 3 Zrotation Yrotation Xrotation
						JOINT Head
						{
							OFFSET 0.000000 1.667000 -0.240000
							CHANNELS 3 Zrotation Yrotation Xrotation
							End Site
							{
								OFFSET 0.000000 0.000000 0.000000
							}
						}
					}
				}
				JOINT LeftShoulder
				{
					OFFSET 0.000000 0.000000 0.000000
					CHANNELS 3 Zrotation Yrotation Xrotation
					JOINT LeftArm
					{
						OFFSET 2.700000 1.550000 -0.730000
						CHANNELS 3 Zrotation Yrotation Xrotation
						JOINT LeftForeArm
						{
							OFFSET 5.450000 0.000000 0.000000
							CHANNELS 3 Zrotation Yrotation Xrotation
							JOINT LeftHand
							{
								OFFSET 3.450000 0.000000 0.000000
								CHANNELS 3 Zrotation Yrotation Xrotation
								JOINT LeftHandIndex1
								{
									OFFSET 0.750000 0.000000 0.000000
									CHANNELS 3 Zrotation Yrotation Xrotation
									End Site
									{
										OFFSET 0.000000 0.000000 0.000000
									}
								}
							}
						}
					}
				}
				JOINT RightShoulder
				{
					OFFSET 0.000000 0.000000 0.000000
					CHANNELS 3 Zrotation Yrotation Xrotation
					JOINT RightArm
					{
						OFFSET -2.700000 1.550000 -0.730000
						CHANNELS 3 Zrotation Yrotation Xrotation
						JOINT RightForeArm
						{
							OFFSET -5.450000 0.000000 0.000000
							CHANNELS 3 Zrotation Yrotation Xrotation
							JOINT RightHand
							{
								OFFSET -3.450000 0.000000 0.000000
								CHANNELS 3 Zrotation Yrotation Xrotation
								JOINT RightHandIndex1
								{
									OFFSET -0.750000 0.000000 0.000000
									CHANNELS 3 Zrotation Yrotation Xrotation
									End Site
									{
										OFFSET 0.000000 0.000000 0.000000
									}
								}
							}
						}
					}
				}
			}
		}
	}
}
MOTION
Frames: 8
Frame Time: 0.016667
-0.655460 16.684330 -6.593050 -0.314449 28.645064 -6.015891 -15.434830 13.580362 2.555961 7.449208 -1.543871 -9.158586 -7.885038 9.705040 27.947185 0.088006 6.158573 2.357174 0.281400 0.147340 0.266890 17.949251 -10.662049 2.963378 -13.010430 1.699058 -26.512668 14.738617 -9.512254 25.129655 -0.290126 -4.561211 2.581318 0.150930 0.009020 0.127810 -3.361453 -2.050841 -7.326582 2.734347 -3.223275 12.166190 2.323424 -3.274024 8.589206 1.033867 3.645850 -5.945164 3.564323 -5.840047 39.740391 -0.510800 -2.846220 -8.722750 -16.322921 4.371253 2.276604 -55.124356 -4.156302 1.669256 -100.541594 -60.847554 62.673319 -3.709868 3.547538 0.291770 0.017880 0.076930 0.041220 15.910054 -6.843362 0.436528 62.266518 2.551526 -17.800469 -15.675261 82.471740 -16.502119 1.745222 -1.418160 -0.082490 0.129760 -0.022050 -0.148060 
-0.613600 16.646810 -6.565790 -0.202729 28.125793 -6.214565 -15.436291 13.562966 2.593690 7.395479 -1.655148 -9.190097 -8.092711 10.131475 29.356591 0.136499 6.426686 2.267886 0.278640 0.149210 0.263380 17.943389 -10.714862 2.918281 -12.710297 1.750747 -26.191016 14.022493 -9.364894 25.549490 -0.274226 -4.563050 2.586709 0.160590 0.025510 0.133330 -3.339075 -1.955883 -7.334888 2.752527 -2.883779 12.246227 2.452401 -2.851601 7.900059 1.273334 4.081117 -5.677176 4.343063 -6.500345 39.617070 -1.169920 -2.872320 -7.852530 -18.607429 2.887647 2.435416 -53.394100 -4.819751 2.784593 -105.374985 -59.520433 66.091635 -3.757233 3.541356 0.264640 0.044950 0.060000 0.043430 17.796998 -5.551860 -0.212605 58.957908 3.406917 -18.112061 -25.674164 75.366791 -19.835805 1.680343 -1.184477 -0.083210 0.128270 -0.020200 -0.145320 
-0.566810 16.629550 -6.557790 -0.361755 27.760074 -6.345132 -15.432410 13.587466 2.637490 7.307110 -1.680356 -9.185779 -8.298514 10.320278 29.775198 0.166530 6.533793 2.237678 0.269810 0.142020 0.244980 17.936132 -10.753075 2.874081 -12.381204 1.785082 -25.755309 13.255374 -9.063553 25.479564 -0.244113 -4.482101 2.624560 0.161190 0.046460 0.134700 -3.335592 -1.962212 -7.355049 3.283477 -2.822315 12.202714 3.011984 -2.699120 7.581513 1.207483 3.763421 -5.793852 3.660103 -6.553448 39.907606 -1.324550 -3.131060 -6.851120 -20.211704 0.808120 3.033037 -53.701950 -5.811865 4.151287 -109.685048 -58.144078 68.848496 -3.780439 3.547086 0.240090 0.062530 0.040310 0.049370 19.479867 -3.065539 -0.548986 54.810758 4.902155 -16.644271 -27.537957 66.599012 -16.929679 1.732047 -1.176114 -0.082570 0.126840 -0.014730 -0.134430 
-0.528390 16.633560 -6.554590 -0.296500 27.261305 -6.108620 -15.442173 13.652126 2.675868 6.881904 -1.605872 -9.087743 -8.351085 10.233585 29.384668 0.169621 6.478901 2.267375 0.272410 0.152950 0.222830 17.917947 -10.765060 2.820521 -11.997737 1.763269 -25.397575 12.224631 -8.451389 24.638577 -0.192834 -4.257581 2.716237 0.172530 0.069520 0.134600 -3.284570 -2.088625 -7.336389 3.449105 -2.899277 11.869263 3.699625 -2.760331 7.788683 0.958397 3.018106 -6.045377 2.122030 -6.369934 39.640621 -1.263520 -3.607730 -6.378830 -21.303727 -1.548256 3.650869 -55.372694 -7.818963 5.989645 -111.803473 -57.191926 69.917947 -3.798251 3.551693 0.212140 0.076840 0.021200 0.063680 20.953682 -0.071911 -0.455315 50.852519 6.682140 -14.495820 -24.824742 58.448534 -12.704327 1.831375 -1.255513 -0.077600 0.131080 -0.014180 -0.116410 
-0.504540 16.660600 -6.575090 -0.133825 26.415719 -5.602635 -15.461034 13.722826 2.738043 6.496333 -1.441181 -8.936475 -8.901143 10.150067 28.122367 0.164595 6.325366 2.320080 0.292630 0.182670 0.224620 17.888282 -10.741239 2.785632 -11.547413 1.793978 -25.057497 11.208585 -7.609416 22.928410 -0.147714 -3.888052 2.855147 0.181910 0.058390 0.130540 -3.188877 -2.281254 -7.351263 3.331383 -2.961781 11.589762 4.713573 -2.928710 8.485900 0.646986 2.073507 -6.847971 0.197226 -5.633311 40.546576 -1.088060 -3.634280 -6.601820 -21.213265 -4.634724 4.616520 -58.401341 -10.354428 7.505084 -110.203462 -56.994840 67.657049 -3.788473 3.535812 0.214490 0.060360 0.034020 0.073700 21.393795 3.794669 0.268645 48.330519 9.213789 -12.277091 -20.466900 50.895926 -9.014331 1.944536 -1.296313 -0.063820 0.132880 -0.026300 -0.106790 
-0.485650 16.702570 -6.607850 -0.183323 25.133436 -4.942453 -15.444448 13.726944 2.772122 6.249019 -1.229959 -8.680577 -9.599722 9.938192 26.120414 0.132350 6.095991 2.402379 0.310400 0.211910 0.228040 17.903657 -10.725316 2.772715 -10.913688 1.848776 -24.745344 10.362639 -6.745537 20.668668 -0.101543 -3.508809 2.999096 0.198490 0.054870 0.129910 -3.206172 -2.329852 -7.358056 3.804538 -3.256537 11.011717 4.795248 -3.383536 9.499880 0.509250 1.425978 -7.676460 -1.033163 -4.808042 41.286970 -1.324040 -3.188150 -6.649920 -21.235186 -8.287064 5.646989 -60.703442 -13.791977 9.248564 -107.933014 -58.375198 66.446298 -3.815487 3.483737 0.208660 0.058940 0.039960 0.082080 21.594754 7.749812 1.059550 47.637119 12.867226 -9.587742 -16.381978 44.083283 -6.494342 2.039740 -1.309689 -0.056020 0.136110 -0.035050 -0.101460 
-0.472170 16.742030 -6.647310 -0.041545 23.818224 -3.812556 -15.436952 13.733714 2.804647 5.443509 -1.137735 -8.920590 -9.806555 9.483697 24.242207 0.059961 5.818753 2.504979 0.320880 0.232020 0.224600 17.922098 -10.686296 2.740673 -10.059240 1.841113 -24.409283 8.953037 -5.715788 17.993714 -0.036098 -3.094567 3.157850 0.226540 0.076020 0.133020 -3.204121 -2.455006 -7.318843 4.031827 -3.651336 10.089308 4.915776 -3.971380 10.560899 0.180218 0.711831 -8.251386 -2.395584 -3.834401 41.098757 -1.853990 -2.599380 -6.600170 -20.650919 -11.717812 6.298660 -62.749547 -18.912088 12.077805 -102.227742 -60.503626 63.165420 -3.883414 3.422988 0.187620 0.082880 0.022290 0.087330 21.564649 11.366104 1.786823 47.453568 16.732529 -6.698612 -12.731184 38.930390 -4.823723 2.099459 -1.323029 -0.062540 0.147390 -0.029960 -0.098970 
-0.463630 16.788800 -6.704920 -0.066593 22.344694 -2.794827 -15.433761 13.735854 2.839861 4.701653 -1.149103 -9.408261 -9.741048 8.968865 22.669396 -0.023926 5.528664 2.602108 0.359500 0.284520 0.248480 17.931124 -10.650095 2.737434 -9.019091 1.848378 -23.851788 7.623177 -4.817922 15.328838 -0.010079 -2.735082 3.295907 0.267030 0.075470 0.136430 -3.180048 -2.556094 -7.330376 4.155679 -3.828557 9.634313 5.075056 -4.340877 11.667810 0.034224 0.724542 -9.082125 -2.394967 -3.255075 41.214136 -1.836650 -1.951690 -7.573540 -20.089354 -15.948877 7.079901 -64.014360 -24.838309 15.002582 -93.261243 -63.392977 57.987177 -3.933729 3.342886 0.193500 0.086770 0.033890 0.096370 21.231438 15.253532 2.812505 47.660846 20.066789 -4.242979 -9.437205 35.491496 -3.708279 2.130623 -1.328252 -0.063730 0.167100 -0.040790 -0.103310 
